# File created by Blade
# Date/Time:  Fri Jan 16 19:18:57 2015
# Frame Rate: 120.000 fps
#------------------------------------------------------
:FULLY-SPECIFIED
:DEGREES
139
root 19.879367 35.649798 -22.392990 -171.188930 -0.363603 -179.738550
Spine -22.091462 2.251264 -0.398980
Head 11.649459 -0.887343 -3.051200
LeftShoulder -6.704259 -47.908842 32.446168
LeftArm 34.410969 -25.473577 -8.477078
LeftForeArm -44.665698 -0.000000 17.322397
LeftHand -2.980831 -0.000000 -6.707706
LeftHandThumb1 -26.253704 0.000000 33.147579
RightShoulder -5.243485 13.676486 -36.184754
RightArm 70.453492 77.443679 49.726225
RightForeArm 21.179335 0.000000 39.351845
RightHand 7.633872 -0.000000 -0.270476
RightHandThumb1 -24.326973 -0.000000 -32.862282
LeftUpLeg 0.377559 9.183301 -0.518720
LeftLeg -6.603474 -0.000000 0.000000
LeftFoot -20.047885 26.049140 -15.761848
LeftToeBase 24.870602 -0.000000 -0.000000
RightUpLeg -0.726283 -5.016402 -0.288991
RightLeg -2.711048 -0.000000 0.000000
RightFoot -21.767500 -25.204494 16.614931
RightToeBase 23.436895 -0.000000 -0.000000
140
root 19.880241 35.651621 -22.383583 -171.110240 -0.366426 -179.738765
Spine -22.121448 2.299128 -0.451377
Head 11.562627 -0.964099 -3.027940
LeftShoulder -6.646498 -48.193911 32.715649
LeftArm 35.208568 -25.758386 -8.730050
LeftForeArm -45.175225 -0.000000 18.408722
LeftHand -2.763595 -0.000000 -7.128165
LeftHandThumb1 -26.253704 0.000000 33.147579
RightShoulder -5.298145 14.114137 -36.664194
RightArm 72.015701 77.156529 50.899329
RightForeArm 21.718048 -0.000000 40.477700
RightHand 7.951845 -0.000000 0.105220
RightHandThumb1 -24.326973 -0.000000 -32.862282
LeftUpLeg 0.291867 9.182786 -0.532831
LeftLeg -6.624506 -0.000000 0.000000
LeftFoot -20.005686 26.054014 -15.751356
LeftToeBase 24.858634 -0.000000 -0.000000
RightUpLeg -0.808347 -5.042832 -0.278489
RightLeg -2.733222 -0.000000 0.000000
RightFoot -21.727484 -25.236536 16.611714
RightToeBase 23.363390 -0.000000 -0.000000
141
root 19.882304 35.653007 -22.373058 -171.026700 -0.376587 -179.730787
Spine -22.151131 2.327645 -0.495098
Head 11.473821 -1.018125 -2.986745
LeftShoulder -6.576318 -48.473181 32.988736
LeftArm 35.934835 -25.926345 -8.841397
LeftForeArm -45.838511 -0.000000 19.490096
LeftHand -2.424403 0.000000 -7.549920
LeftHandThumb1 -26.253704 0.000000 33.147579
RightShoulder -5.417070 15.029394 -37.339417
RightArm 72.440996 76.550322 51.296952
RightForeArm 22.087861 -0.000000 41.837304
RightHand 8.187946 -0.000000 0.445384
RightHandThumb1 -24.326973 -0.000000 -32.862282
LeftUpLeg 0.195944 9.181518 -0.536941
LeftLeg -6.639431 -0.000000 0.000000
LeftFoot -19.988225 26.049099 -15.752730
LeftToeBase 24.873204 -0.000000 -0.000000
RightUpLeg -0.899430 -5.082771 -0.253897
RightLeg -2.755575 -0.000000 0.000000
RightFoot -21.704737 -25.187965 16.632427
RightToeBase 23.466497 -0.000000 -0.000000
142
root 19.885164 35.655070 -22.361969 -170.959550 -0.394760 -179.717913
Spine -22.148939 2.333752 -0.520598
Head 11.376576 -1.075096 -2.971086
LeftShoulder -6.518606 -48.717598 33.257506
LeftArm 36.692437 -26.143668 -8.952548
LeftForeArm -46.235986 -0.000000 20.528403
LeftHand -2.069351 -0.000000 -7.917915
LeftHandThumb1 -26.253704 0.000000 33.147579
RightShoulder -5.491908 15.373119 -37.810341
RightArm 75.125916 76.344891 53.649176
RightForeArm 22.328620 -0.000000 42.983062
RightHand 8.495692 0.000000 1.026510
RightHandThumb1 -24.326973 -0.000000 -32.862282
LeftUpLeg 0.116911 9.176492 -0.531694
LeftLeg -6.658647 -0.000000 0.000000
LeftFoot -19.941953 26.043500 -15.731236
LeftToeBase 24.832820 -0.000000 -0.000000
RightUpLeg -0.976886 -5.121704 -0.225160
RightLeg -2.770137 -0.000000 0.000000
RightFoot -21.668952 -25.152180 16.636793
RightToeBase 23.439496 -0.000000 -0.000000
143
root 19.887583 35.657349 -22.350856 -170.892982 -0.419715 -179.712277
Spine -22.147707 2.331911 -0.557440
Head 11.285034 -1.124253 -2.940976
LeftShoulder -6.442109 -49.177818 33.577840
LeftArm 37.313461 -26.146163 -9.004720
LeftForeArm -46.830515 -0.000000 21.559840
LeftHand -1.787206 -0.000000 -8.506596
LeftHandThumb1 -26.253704 0.000000 33.147579
RightShoulder -5.518799 15.727284 -38.233970
RightArm 76.913001 76.170440 55.035354
RightForeArm 22.816518 -0.000000 44.171382
RightHand 8.617866 -0.000000 1.325741
RightHandThumb1 -24.326973 -0.000000 -32.862282
LeftUpLeg 0.047226 9.111832 -0.528724
LeftLeg -6.694836 -0.000000 0.000000
LeftFoot -19.872164 26.094381 -15.710335
LeftToeBase 24.780218 -0.000000 -0.000000
RightUpLeg -1.043566 -5.180175 -0.200859
RightLeg -2.801704 -0.000000 0.000000
RightFoot -21.630580 -25.138676 16.629544
RightToeBase 23.485518 -0.000000 -0.000000
144
root 19.889990 35.658876 -22.340434 -170.818010 -0.443497 -179.707087
Spine -22.158388 2.339167 -0.609935
Head 11.203335 -1.220251 -2.898909
LeftShoulder -6.405351 -49.650108 33.960318
LeftArm 37.974279 -26.150257 -9.161785
LeftForeArm -47.288073 -0.000000 22.593633
LeftHand -1.294776 -0.000000 -9.127383
LeftHandThumb1 -26.253704 0.000000 33.147579
RightShoulder -5.578910 15.909145 -38.611562
RightArm 79.552815 76.048803 57.229340
RightForeArm 23.109424 -0.000000 45.263029
RightHand 8.975676 -0.000000 1.930532
RightHandThumb1 -24.326973 -0.000000 -32.862282
LeftUpLeg -0.038134 9.091138 -0.531697
LeftLeg -6.717608 -0.000000 0.000000
LeftFoot -19.840630 26.096513 -15.701486
LeftToeBase 24.801773 -0.000000 -0.000000
RightUpLeg -1.116358 -5.220670 -0.177325
RightLeg -2.834071 -0.000000 0.000000
RightFoot -21.583454 -25.137714 16.626810
RightToeBase 23.421596 -0.000000 -0.000000
145
root 19.891622 35.659965 -22.329425 -170.747047 -0.469680 -179.709937
Spine -22.151979 2.335574 -0.681082
Head 11.079764 -1.334611 -2.807983
LeftShoulder -6.447607 -50.076555 34.462545
LeftArm 38.625614 -26.183267 -9.411573
LeftForeArm -47.692480 -0.000000 23.654001
LeftHand -0.822622 -0.000000 -9.939433
LeftHandThumb1 -26.253704 0.000000 33.147579
RightShoulder -5.524971 15.693382 -38.852269
RightArm 83.337688 76.259970 60.404892
RightForeArm 23.499391 -0.000000 46.289691
RightHand 9.262803 -0.000000 2.532374
RightHandThumb1 -24.326973 -0.000000 -32.862282
LeftUpLeg -0.123715 9.086789 -0.544402
LeftLeg -6.736229 -0.000000 0.000000
LeftFoot -19.834094 26.091795 -15.719059
LeftToeBase 24.872019 -0.000000 -0.000000
RightUpLeg -1.193121 -5.278760 -0.161622
RightLeg -2.858959 -0.000000 0.000000
RightFoot -21.562648 -25.133875 16.617756
RightToeBase 23.450175 -0.000000 -0.000000
146
root 19.893464 35.661485 -22.319107 -170.695076 -0.503281 -179.710813
Spine -22.121385 2.341032 -0.745276
Head 10.981418 -1.410068 -2.738368
LeftShoulder -6.385282 -50.361598 34.808018
LeftArm 39.294983 -26.344407 -9.543291
LeftForeArm -48.110929 0.000000 24.708950
LeftHand -0.303856 -0.000000 -10.538764
LeftHandThumb1 -26.253704 0.000000 33.147579
RightShoulder -5.611529 15.886226 -39.183082
RightArm 85.688602 76.104195 62.228243
RightForeArm 24.086479 0.000000 47.291112
RightHand 9.681019 -0.000000 2.691777
RightHandThumb1 -24.326973 -0.000000 -32.862282
LeftUpLeg -0.192667 9.086826 -0.551812
LeftLeg -6.748432 -0.000000 0.000000
LeftFoot -19.765817 26.066058 -15.696656
LeftToeBase 24.758632 -0.000000 -0.000000
RightUpLeg -1.239803 -5.322829 -0.145437
RightLeg -2.900857 -0.000000 0.000000
RightFoot -21.533262 -25.190606 16.633995
RightToeBase 23.387897 -0.000000 -0.000000
147
root 19.895117 35.663484 -22.309780 -170.637887 -0.543355 -179.710213
Spine -22.094824 2.327645 -0.793316
Head 10.893751 -1.437948 -2.689130
LeftShoulder -6.374417 -50.618784 35.155386
LeftArm 40.012838 -26.476214 -9.642052
LeftForeArm -48.659530 0.000000 25.738182
LeftHand 0.118244 -0.000000 -11.243377
LeftHandThumb1 -26.253704 0.000000 33.147579
RightShoulder -5.729644 16.167863 -39.553219
RightArm 87.876615 75.863640 63.931419
RightForeArm 24.632268 -0.000000 48.275238
RightHand 9.975586 0.000000 3.146980
RightHandThumb1 -24.326973 -0.000000 -32.862282
LeftUpLeg -0.263062 9.075598 -0.557123
LeftLeg -6.768370 -0.000000 0.000000
LeftFoot -19.718473 26.056550 -15.679770
LeftToeBase 24.761972 -0.000000 -0.000000
RightUpLeg -1.291529 -5.393903 -0.128132
RightLeg -2.938380 -0.000000 0.000000
RightFoot -21.459244 -25.052714 16.781458
RightToeBase 23.039863 -0.000000 -0.000000
148
root 19.896870 35.665388 -22.299312 -170.582516 -0.592043 -179.717410
Spine -22.065281 2.296403 -0.853913
Head 10.804889 -1.460855 -2.612468
LeftShoulder -6.357955 -50.973531 35.580717
LeftArm 40.617898 -26.611403 -9.851646
LeftForeArm -49.386901 -0.000000 26.895000
LeftHand 0.429742 0.000000 -12.086266
LeftHandThumb1 -26.253704 0.000000 33.147579
RightShoulder -5.866960 16.405086 -39.888532
RightArm 90.152411 75.609947 65.675409
RightForeArm 25.124349 -0.000000 49.169674
RightHand 10.332083 -0.000000 3.627517
RightHandThumb1 -24.326973 -0.000000 -32.862282
LeftUpLeg -0.338035 9.058828 -0.567285
LeftLeg -6.777982 -0.000000 0.000000
LeftFoot -19.717005 26.021460 -15.715349
LeftToeBase 24.870708 -0.000000 -0.000000
RightUpLeg -1.343138 -5.423491 -0.116369
RightLeg -2.965115 -0.000000 0.000000
RightFoot -21.466078 -25.146781 16.640472
RightToeBase 23.424343 -0.000000 -0.000000
149
root 19.898659 35.666588 -22.290549 -170.535386 -0.645991 -179.716005
Spine -22.044576 2.262930 -0.904584
Head 10.777223 -1.496065 -2.569202
LeftShoulder -6.274493 -51.285016 35.931793
LeftArm 41.221887 -26.718750 -9.962961
LeftForeArm -49.841482 -0.000000 28.038758
LeftHand 0.605244 -0.000000 -12.666621
LeftHandThumb1 -26.253704 0.000000 33.147579
RightShoulder -5.968240 16.902415 -40.300000
RightArm 91.044106 75.313739 66.168291
RightForeArm 25.746345 -0.000000 50.145657
RightHand 10.548045 -0.000000 3.966926
RightHandThumb1 -24.326973 -0.000000 -32.862282
LeftUpLeg -0.394341 9.020717 -0.566172
LeftLeg -6.802228 -0.000000 0.000000
LeftFoot -19.641026 26.013219 -15.672762
LeftToeBase 24.760644 -0.000000 -0.000000
RightUpLeg -1.380618 -5.485556 -0.097681
RightLeg -3.001377 -0.000000 0.000000
RightFoot -21.407058 -25.120825 16.695619
RightToeBase 23.223319 -0.000000 -0.000000
